<?xml version="1.0" standalone="no"?>
<!DOCTYPE svg PUBLIC "-//W3C//DTD SVG 20010904//EN"
 "http://www.w3.org/TR/2001/REC-SVG-20010904/DTD/svg10.dtd">
<svg version="1.0" xmlns="http://www.w3.org/2000/svg"
 width="346.000000pt" height="346.000000pt" viewBox="0 0 346.000000 346.000000"
 preserveAspectRatio="xMidYMid meet">
<metadata>
Created by potrace 1.11, written by Peter Selinger 2001-2013
</metadata>
<g transform="translate(0.000000,346.000000) scale(0.100000,-0.100000)"
fill="#000000" stroke="none">
<path d="M1525 3443 c-511 -64 -959 -341 -1237 -764 -129 -196 -231 -456 -263
-669 -4 -25 -9 -58 -12 -75 -9 -50 -10 -346 -1 -400 30 -187 58 -308 88 -380
4 -11 14 -36 21 -55 45 -125 132 -282 227 -410 79 -106 271 -293 380 -370 199
-141 461 -254 662 -286 19 -3 38 -8 41 -10 17 -10 160 -19 304 -19 198 0 273
9 430 50 181 48 334 114 496 216 87 54 91 57 195 146 203 174 350 373 463 626
57 127 111 329 128 477 15 128 9 394 -12 505 -144 766 -744 1330 -1512 1421
-97 11 -298 10 -398 -3z"/>
</g>
</svg>
